<svg xmlns="http://www.w3.org/2000/svg" viewBox="0 0 880 720" width="880" height="720"><defs><marker id="ah" viewBox="0 0 10 10" refX="9.5" refY="5" markerWidth="6" markerHeight="6" orient="auto"><path d="M 0 0 L 10 5 L 0 10 z" fill="#5d6d7e"/></marker></defs><rect x="290" y="24" width="280" height="40" rx="18" fill="#2c3e50" stroke="#2c3e50" stroke-width="1.6"/><text x="430.0" y="48.4" font-family="Noto Sans CJK TC, WenQuanYi Zen Hei, sans-serif" font-size="12" font-weight="normal" fill="#ffffff" text-anchor="middle">使用者於介面指定檔案路徑</text><rect x="280.0" y="98" width="300" height="46" rx="4" fill="#eaf2f8" stroke="#2980b9" stroke-width="1.6"/><text x="430.0" y="125.4" font-family="Noto Sans CJK TC, WenQuanYi Zen Hei, sans-serif" font-size="12" font-weight="normal" fill="#1a3a5a" text-anchor="middle">路徑檢查（白名單／逃逸防護）</text><polygon points="430,178.0 550.0,208 430,238.0 310.0,208" fill="#fef9e7" stroke="#b9770e" stroke-width="1.6"/><text x="430.0" y="212.2" font-family="Noto Sans CJK TC, WenQuanYi Zen Hei, sans-serif" font-size="11.5" font-weight="normal" fill="#6e4a08" text-anchor="middle">路徑合法？</text><rect x="690" y="186" width="150" height="44" rx="4" fill="#fdeded" stroke="#c0392b" stroke-width="1.6"/><text x="765.0" y="204.3" font-family="Noto Sans CJK TC, WenQuanYi Zen Hei, sans-serif" font-size="11" font-weight="normal" fill="#7b241c" text-anchor="middle">拒絕</text><text x="765.0" y="219.9" font-family="Noto Sans CJK TC, WenQuanYi Zen Hei, sans-serif" font-size="11" font-weight="normal" fill="#7b241c" text-anchor="middle">顯示原因</text><rect x="280.0" y="274" width="300" height="46" rx="4" fill="#eaf2f8" stroke="#2980b9" stroke-width="1.6"/><text x="430.0" y="301.4" font-family="Noto Sans CJK TC, WenQuanYi Zen Hei, sans-serif" font-size="12" font-weight="normal" fill="#1a3a5a" text-anchor="middle">讀取檔案 + 依 format 解析</text><polygon points="430,354.0 550.0,388 430,422.0 310.0,388" fill="#fef9e7" stroke="#b9770e" stroke-width="1.6"/><text x="430.0" y="384.1" font-family="Noto Sans CJK TC, WenQuanYi Zen Hei, sans-serif" font-size="11.5" font-weight="normal" fill="#6e4a08" text-anchor="middle">解析成功且</text><text x="430.0" y="400.4" font-family="Noto Sans CJK TC, WenQuanYi Zen Hei, sans-serif" font-size="11.5" font-weight="normal" fill="#6e4a08" text-anchor="middle">無歧義值？</text><rect x="670" y="362" width="170" height="60" rx="4" fill="#fef5e7" stroke="#e67e22" stroke-width="1.6"/><text x="755.0" y="388.3" font-family="Noto Sans CJK TC, WenQuanYi Zen Hei, sans-serif" font-size="11" font-weight="normal" fill="#7e4a11" text-anchor="middle">列出歧義值</text><text x="755.0" y="403.9" font-family="Noto Sans CJK TC, WenQuanYi Zen Hei, sans-serif" font-size="11" font-weight="normal" fill="#7e4a11" text-anchor="middle">要求使用者確認</text><rect x="280.0" y="458" width="300" height="46" rx="4" fill="#eaf2f8" stroke="#2980b9" stroke-width="1.6"/><text x="430.0" y="485.4" font-family="Noto Sans CJK TC, WenQuanYi Zen Hei, sans-serif" font-size="12" font-weight="normal" fill="#1a3a5a" text-anchor="middle">記錄各欄位當前型別</text><rect x="280.0" y="524" width="300" height="46" rx="4" fill="#eaf2f8" stroke="#2980b9" stroke-width="1.6"/><text x="430.0" y="551.4" font-family="Noto Sans CJK TC, WenQuanYi Zen Hei, sans-serif" font-size="12" font-weight="normal" fill="#1a3a5a" text-anchor="middle">顯示解析結果供確認</text><rect x="280.0" y="590" width="300" height="50" rx="4" fill="#eaf2f8" stroke="#2980b9" stroke-width="1.6"/><text x="430.0" y="619.2" font-family="Noto Sans CJK TC, WenQuanYi Zen Hei, sans-serif" font-size="11.5" font-weight="normal" fill="#1a3a5a" text-anchor="middle">寫入 repo + 建立清單檔條目</text><rect x="280.0" y="662" width="300" height="40" rx="4" fill="#e8f6ef" stroke="#27ae60" stroke-width="1.6"/><text x="430.0" y="686.2" font-family="Noto Sans CJK TC, WenQuanYi Zen Hei, sans-serif" font-size="11.5" font-weight="normal" fill="#14512f" text-anchor="middle">記錄變更（import）</text><path d="M 430.0 64 L 430.0 98" fill="none" stroke="#5d6d7e" stroke-width="1.6" marker-end="url(#ah)"/><path d="M 430.0 144 L 430.0 178.0" fill="none" stroke="#5d6d7e" stroke-width="1.6" marker-end="url(#ah)"/><path d="M 550.0 208.0 L 690 208.0" fill="none" stroke="#5d6d7e" stroke-width="1.6" marker-end="url(#ah)"/><text x="620.0" y="201.0" font-family="Noto Sans CJK TC, WenQuanYi Zen Hei, sans-serif" font-size="10" font-weight="bold" fill="#5d6d7e" text-anchor="middle">否</text><path d="M 430.0 238.0 L 430.0 274" fill="none" stroke="#5d6d7e" stroke-width="1.6" marker-end="url(#ah)"/><text x="437.0" y="260.0" font-family="Noto Sans CJK TC, WenQuanYi Zen Hei, sans-serif" font-size="10" font-weight="bold" fill="#5d6d7e" text-anchor="start">是</text><path d="M 430.0 320 L 430.0 354.0" fill="none" stroke="#5d6d7e" stroke-width="1.6" marker-end="url(#ah)"/><path d="M 550.0 388.0 L 610.0 388.0 L 610.0 392.0 L 670 392.0" fill="none" stroke="#5d6d7e" stroke-width="1.6" marker-end="url(#ah)"/><text x="580.0" y="381.0" font-family="Noto Sans CJK TC, WenQuanYi Zen Hei, sans-serif" font-size="10" font-weight="bold" fill="#5d6d7e" text-anchor="middle">否</text><path d="M 755.0 362 L 755.0 297.0 L 580.0 297.0" fill="none" stroke="#e67e22" stroke-width="1.6" marker-end="url(#ah)"/><text x="667.5" y="290.0" font-family="Noto Sans CJK TC, WenQuanYi Zen Hei, sans-serif" font-size="10" font-weight="bold" fill="#e67e22" text-anchor="middle">修正後重試</text><path d="M 430.0 422.0 L 430.0 458" fill="none" stroke="#5d6d7e" stroke-width="1.6" marker-end="url(#ah)"/><text x="437.0" y="444.0" font-family="Noto Sans CJK TC, WenQuanYi Zen Hei, sans-serif" font-size="10" font-weight="bold" fill="#5d6d7e" text-anchor="start">是</text><path d="M 430.0 504 L 430.0 524" fill="none" stroke="#5d6d7e" stroke-width="1.6" marker-end="url(#ah)"/><path d="M 430.0 570 L 430.0 590" fill="none" stroke="#5d6d7e" stroke-width="1.6" marker-end="url(#ah)"/><path d="M 430.0 640 L 430.0 662" fill="none" stroke="#5d6d7e" stroke-width="1.6" marker-end="url(#ah)"/></svg>