<svg xmlns="http://www.w3.org/2000/svg" viewBox="0 0 880 555" width="880" height="555"><defs><marker id="ah" viewBox="0 0 10 10" refX="9.5" refY="5" markerWidth="6" markerHeight="6" orient="auto"><path d="M 0 0 L 10 5 L 0 10 z" fill="#5d6d7e"/></marker></defs><rect x="290" y="24" width="280" height="40" rx="18" fill="#2c3e50" stroke="#2c3e50" stroke-width="1.6"/><text x="430.0" y="48.4" font-family="Noto Sans CJK TC, WenQuanYi Zen Hei, sans-serif" font-size="12" font-weight="normal" fill="#ffffff" text-anchor="middle">使用者選擇目標 config</text><rect x="280.0" y="96" width="300" height="44" rx="4" fill="#e8f6ef" stroke="#27ae60" stroke-width="1.6"/><text x="430.0" y="122.2" font-family="Noto Sans CJK TC, WenQuanYi Zen Hei, sans-serif" font-size="11.5" font-weight="normal" fill="#14512f" text-anchor="middle">列出歷史（依前綴過濾）</text><rect x="280.0" y="164" width="300" height="44" rx="4" fill="#eaf2f8" stroke="#2980b9" stroke-width="1.6"/><text x="430.0" y="190.4" font-family="Noto Sans CJK TC, WenQuanYi Zen Hei, sans-serif" font-size="12" font-weight="normal" fill="#1a3a5a" text-anchor="middle">選擇欲回復的版本</text><rect x="280.0" y="232" width="300" height="44" rx="4" fill="#e8f6ef" stroke="#27ae60" stroke-width="1.6"/><text x="430.0" y="258.2" font-family="Noto Sans CJK TC, WenQuanYi Zen Hei, sans-serif" font-size="11.5" font-weight="normal" fill="#14512f" text-anchor="middle">顯示差異供確認</text><polygon points="430,312.0 545.0,342 430,372.0 315.0,342" fill="#fef9e7" stroke="#b9770e" stroke-width="1.6"/><text x="430.0" y="346.2" font-family="Noto Sans CJK TC, WenQuanYi Zen Hei, sans-serif" font-size="11.5" font-weight="normal" fill="#6e4a08" text-anchor="middle">使用者確認？</text><rect x="700" y="320" width="140" height="44" rx="18" fill="#7f8c8d" stroke="#7f8c8d" stroke-width="1.6"/><text x="770.0" y="346.4" font-family="Noto Sans CJK TC, WenQuanYi Zen Hei, sans-serif" font-size="12" font-weight="normal" fill="#ffffff" text-anchor="middle">取消</text><rect x="260.0" y="408" width="340" height="48" rx="4" fill="#e8f6ef" stroke="#27ae60" stroke-width="1.6"/><text x="430.0" y="428.3" font-family="Noto Sans CJK TC, WenQuanYi Zen Hei, sans-serif" font-size="11" font-weight="bold" fill="#14512f" text-anchor="middle">產生反向變更紀錄（revert）</text><text x="430.0" y="443.9" font-family="Noto Sans CJK TC, WenQuanYi Zen Hei, sans-serif" font-size="11" font-weight="normal" fill="#14512f" text-anchor="middle">保留完整歷史，不改寫</text><rect x="260.0" y="482" width="340" height="44" rx="4" fill="#e8f6ef" stroke="#27ae60" stroke-width="1.6"/><text x="430.0" y="508.2" font-family="Noto Sans CJK TC, WenQuanYi Zen Hei, sans-serif" font-size="11.5" font-weight="bold" fill="#14512f" text-anchor="middle">寫出至目標位置</text><path d="M 430.0 64 L 430.0 96" fill="none" stroke="#5d6d7e" stroke-width="1.6" marker-end="url(#ah)"/><path d="M 430.0 140 L 430.0 164" fill="none" stroke="#5d6d7e" stroke-width="1.6" marker-end="url(#ah)"/><path d="M 430.0 208 L 430.0 232" fill="none" stroke="#5d6d7e" stroke-width="1.6" marker-end="url(#ah)"/><path d="M 430.0 276 L 430.0 312.0" fill="none" stroke="#5d6d7e" stroke-width="1.6" marker-end="url(#ah)"/><path d="M 545.0 342.0 L 700 342.0" fill="none" stroke="#5d6d7e" stroke-width="1.6" marker-end="url(#ah)"/><text x="622.5" y="335.0" font-family="Noto Sans CJK TC, WenQuanYi Zen Hei, sans-serif" font-size="10" font-weight="bold" fill="#5d6d7e" text-anchor="middle">否</text><path d="M 430.0 372.0 L 430.0 408" fill="none" stroke="#5d6d7e" stroke-width="1.6" marker-end="url(#ah)"/><text x="437.0" y="394.0" font-family="Noto Sans CJK TC, WenQuanYi Zen Hei, sans-serif" font-size="10" font-weight="bold" fill="#5d6d7e" text-anchor="start">是</text><path d="M 430.0 456 L 430.0 482" fill="none" stroke="#5d6d7e" stroke-width="1.6" marker-end="url(#ah)"/></svg>