<svg xmlns="http://www.w3.org/2000/svg" viewBox="0 0 880 430" width="880" height="430"><defs><marker id="ah" viewBox="0 0 10 10" refX="9.5" refY="5" markerWidth="6" markerHeight="6" orient="auto"><path d="M 0 0 L 10 5 L 0 10 z" fill="#5d6d7e"/></marker></defs><rect x="55" y="168" width="175" height="56" rx="18" fill="#2c3e50" stroke="#2c3e50" stroke-width="1.6"/><text x="142.5" y="192.3" font-family="Noto Sans CJK TC, WenQuanYi Zen Hei, sans-serif" font-size="11" font-weight="bold" fill="#ffffff" text-anchor="middle">身分輸入</text><text x="142.5" y="207.9" font-family="Noto Sans CJK TC, WenQuanYi Zen Hei, sans-serif" font-size="11" font-weight="normal" fill="#ffffff" text-anchor="middle">姓名 + email + 角色</text><rect x="330" y="158" width="205" height="76" rx="4" fill="#eaf2f8" stroke="#2980b9" stroke-width="1.6"/><text x="432.5" y="183.9" font-family="Noto Sans CJK TC, WenQuanYi Zen Hei, sans-serif" font-size="11.5" font-weight="bold" fill="#1a3a5a" text-anchor="middle">主畫面</text><text x="432.5" y="200.2" font-family="Noto Sans CJK TC, WenQuanYi Zen Hei, sans-serif" font-size="11.5" font-weight="normal" fill="#1a3a5a" text-anchor="middle">左側樹 + 工作區</text><text x="432.5" y="216.6" font-family="Noto Sans CJK TC, WenQuanYi Zen Hei, sans-serif" font-size="11.5" font-weight="normal" fill="#1a3a5a" text-anchor="middle">（核心，恆常可見）</text><rect x="665" y="30" width="175" height="42" rx="4" fill="#eaf2f8" stroke="#2980b9" stroke-width="1.6"/><text x="752.5" y="55.1" font-family="Noto Sans CJK TC, WenQuanYi Zen Hei, sans-serif" font-size="11" font-weight="normal" fill="#1a3a5a" text-anchor="middle">納管精靈</text><rect x="665" y="108" width="175" height="42" rx="4" fill="#eaf2f8" stroke="#2980b9" stroke-width="1.6"/><text x="752.5" y="133.1" font-family="Noto Sans CJK TC, WenQuanYi Zen Hei, sans-serif" font-size="11" font-weight="normal" fill="#1a3a5a" text-anchor="middle">參數編輯</text><rect x="665" y="250" width="175" height="42" rx="4" fill="#eaf2f8" stroke="#2980b9" stroke-width="1.6"/><text x="752.5" y="275.1" font-family="Noto Sans CJK TC, WenQuanYi Zen Hei, sans-serif" font-size="11" font-weight="normal" fill="#1a3a5a" text-anchor="middle">歷史與退版</text><rect x="665" y="328" width="175" height="42" rx="4" fill="#eaf2f8" stroke="#2980b9" stroke-width="1.6"/><text x="752.5" y="353.1" font-family="Noto Sans CJK TC, WenQuanYi Zen Hei, sans-serif" font-size="11" font-weight="normal" fill="#1a3a5a" text-anchor="middle">差異檢視</text><path d="M 230 184.8 L 280.0 184.8 L 280.0 180.8 L 330 180.8" fill="none" stroke="#5d6d7e" stroke-width="1.6" marker-end="url(#ah)"/><text x="255.0" y="177.8" font-family="Noto Sans CJK TC, WenQuanYi Zen Hei, sans-serif" font-size="10" font-weight="bold" fill="#5d6d7e" text-anchor="middle">進入</text><path d="M 330 215.0 L 280.0 215.0 L 280.0 210.0 L 230 210.0" fill="none" stroke="#7f8c8d" stroke-width="1.6" marker-end="url(#ah)"/><text x="305.0" y="208.0" font-family="Noto Sans CJK TC, WenQuanYi Zen Hei, sans-serif" font-size="10" font-weight="bold" fill="#7f8c8d" text-anchor="middle">退出</text><path d="M 535 165.6 L 600 165.6 L 600 42.6 L 665 42.6" fill="none" stroke="#5d6d7e" stroke-width="1.6" marker-end="url(#ah)"/><path d="M 665 60.2 L 580 60.2 L 580 171.7 L 535 171.7" fill="none" stroke="#7f8c8d" stroke-width="1.6" stroke-dasharray="6,4" marker-end="url(#ah)"/><path d="M 535 182.3 L 620 182.3 L 620 120.6 L 665 120.6" fill="none" stroke="#5d6d7e" stroke-width="1.6" marker-end="url(#ah)"/><path d="M 665 138.2 L 600 138.2 L 600 188.4 L 535 188.4" fill="none" stroke="#7f8c8d" stroke-width="1.6" stroke-dasharray="6,4" marker-end="url(#ah)"/><path d="M 535 208.2 L 620 208.2 L 620 262.6 L 665 262.6" fill="none" stroke="#5d6d7e" stroke-width="1.6" marker-end="url(#ah)"/><path d="M 665 280.2 L 600 280.2 L 600 214.2 L 535 214.2" fill="none" stroke="#7f8c8d" stroke-width="1.6" stroke-dasharray="6,4" marker-end="url(#ah)"/><path d="M 535 226.4 L 600 226.4 L 600 340.6 L 665 340.6" fill="none" stroke="#5d6d7e" stroke-width="1.6" marker-end="url(#ah)"/><path d="M 665 358.2 L 580 358.2 L 580 232.5 L 535 232.5" fill="none" stroke="#7f8c8d" stroke-width="1.6" stroke-dasharray="6,4" marker-end="url(#ah)"/><text x="752" y="400" font-family="Noto Sans CJK TC, WenQuanYi Zen Hei, sans-serif" font-size="10.5" font-weight="bold" fill="#5d6d7e" text-anchor="middle">實線＝進入　　虛線＝完成後回到主畫面</text><rect x="55" y="270" width="230" height="100" rx="4" fill="#f7f9fa" stroke="#95a5a6" stroke-width="1.6"/><text x="170.0" y="302.4" font-family="Noto Sans CJK TC, WenQuanYi Zen Hei, sans-serif" font-size="10" font-weight="bold" fill="#2c3e50" text-anchor="middle">主畫面是核心，不是起點</text><text x="170.0" y="316.6" font-family="Noto Sans CJK TC, WenQuanYi Zen Hei, sans-serif" font-size="10" font-weight="normal" fill="#2c3e50" text-anchor="middle">所有子視圖完成後一律回到主畫面。</text><text x="170.0" y="330.8" font-family="Noto Sans CJK TC, WenQuanYi Zen Hei, sans-serif" font-size="10" font-weight="bold" fill="#2c3e50" text-anchor="middle">子視圖之間沒有直接跳轉——</text><text x="170.0" y="345.0" font-family="Noto Sans CJK TC, WenQuanYi Zen Hei, sans-serif" font-size="10" font-weight="normal" fill="#2c3e50" text-anchor="middle">要換一份 config 就先回主畫面選。</text></svg>